HIERARCHY
ROOT Hips
{
  OFFSET 50.2708 102.855 -162.434
  CHANNELS 6 Xposition Yposition Zposition Zrotation Xrotation Yrotation
  JOINT RightUpLeg
  {
    OFFSET -8.9458 -8.66707 0.101652
    CHANNELS 3 Zrotation Xrotation Yrotation
    JOINT RightLeg
    {
      OFFSET 0 -44.4227 1.3727
      CHANNELS 3 Zrotation Xrotation Yrotation
      JOINT RightFoot
      {
        OFFSET 0.253549 -42.0924 -1.46059
        CHANNELS 3 Zrotation Xrotation Yrotation
        JOINT RightToes
        {
          OFFSET 0.04 -4.41509 8.4991
          CHANNELS 3 Zrotation Xrotation Yrotation
          End Site
          {
            OFFSET -0.08 -0.137448 9.77979
          }
        }
      }
    }
  }
  JOINT Spine
  {
    OFFSET 0 11.8905 0
    CHANNELS 3 Zrotation Xrotation Yrotation
    JOINT Spine1
    {
      OFFSET 0 25.6574 0.127663
      CHANNELS 3 Zrotation Xrotation Yrotation
      JOINT HEad
      {
        OFFSET 0 8.73416 0.011341
        CHANNELS 3 Zrotation Xrotation Yrotation
        End Site
        {
          OFFSET -0.29 12.7742 2.51395
        }
      }
      JOINT LeftShoulder1
      {
        OFFSET 8.99 -0.362252 -0.22
        CHANNELS 3 Zrotation Xrotation Yrotation
        JOINT LeftArm
        {
          OFFSET 10.2827 -0.00338 0.322123
          CHANNELS 3 Zrotation Xrotation Yrotation
          JOINT LeftForeArm
          {
            OFFSET 32.7669 0.099144 -1.42434
            CHANNELS 3 Zrotation Xrotation Yrotation
            JOINT LeftHand
            {
              OFFSET 27.5643 0.085362 1.02216
              CHANNELS 3 Zrotation Xrotation Yrotation
              End Site
              {
                OFFSET 16.7443 -0.6 1.50291
              }
            }
          }
        }
      }
      JOINT RightShoulder
      {
        OFFSET -8.99 -0.362252 -0.22
        CHANNELS 3 Zrotation Xrotation Yrotation
        JOINT RightArm
        {
          OFFSET -10.2827 -0.00338 0.322123
          CHANNELS 3 Zrotation Xrotation Yrotation
          JOINT RightForeArm
          {
            OFFSET -32.8971 0.099144 -1.42434
            CHANNELS 3 Zrotation Xrotation Yrotation
            JOINT RightHand
            {
              OFFSET -27.4921 0.085362 1.02216
              CHANNELS 3 Zrotation Xrotation Yrotation
              End Site
              {
                OFFSET -16.6312 -0.6 1.50291
              }
            }
          }
        }
      }
    }
  }
  JOINT LeftUpLeg
  {
    OFFSET 8.9458 -8.66707 0.101652
    CHANNELS 3 Zrotation Xrotation Yrotation
    JOINT LeftLeg
    {
      OFFSET 0 -44.4227 1.3727
      CHANNELS 3 Zrotation Xrotation Yrotation
      JOINT LeftFoot
      {
        OFFSET -0.253549 -42.0924 -1.46059
        CHANNELS 3 Zrotation Xrotation Yrotation
        JOINT LeftToes
        {
          OFFSET -0.04 -4.41509 8.4991
          CHANNELS 3 Zrotation Xrotation Yrotation
          End Site
          {
            OFFSET 0.08 -0.047448 9.77979
          }
        }
      }
    }
  }
}
MOTION
Frames:	13
Frame Time:	0.0166667
49.025 102.466 -168.853 0.310152 0.050983 1.93692 -0.720263 5.17703 0.161349 3.65119 33.5401 -18.2782 15.4131 -3.77879 -0.114252 0.0462048 0.000533964 0.662642 -0.487004 3.94179 0.77409 2.38748 1.32808 0.150253 -0.0111775 -0.50319 0.868418 4.96962e-016 -7.95139e-016 -7.95139e-016 -88.6637 -32.7801 -0.720393 -20.4202 14.8978 -16.5743 0.368473 9.90896 -0.00117926 -2.55851 0.18839 -0.467404 87.009 -19.0835 10.8035 25.6309 14.9063 15.3172 -0.369625 9.91382 0.00119886 -6.47864 -19.8153 -0.0579042 4.55091 21.5944 17.4037 -1.44845 -7.05197 0.0391761 8.50087e-011 -1.83046e-010 1.02032e-011 
49.3115 102.571 -167.501 0.666364 0.0318017 1.77126 -1.61122 3.06821 -1.04683 3.42112 37.8587 -17.7742 15.2275 -1.15985 -0.453339 0.0462048 0.000533964 0.662642 -0.849148 4.02007 0.772017 2.09855 1.24237 0.143609 0.0077004 -0.617817 1.01711 1.49089e-016 -7.95139e-016 -0 -88.5353 -32.3547 -0.766175 -20.7164 14.9725 -16.9049 0.368473 9.90896 -0.00117926 -2.69954 0.180714 -0.532943 87.017 -20.0223 9.79147 25.4695 14.6926 14.3568 -0.369625 9.91382 0.00119886 -6.92539 -18.8826 -0.720456 4.16045 21.7221 18.2521 -1.65422 -8.05809 0.025822 8.50087e-011 -1.83048e-010 1.02096e-011 
49.5887 102.666 -166.17 0.967322 0.023103 1.56417 -2.47369 0.859246 -1.94561 3.2218 42.1233 -17.5472 15.0275 1.39844 -0.777385 0.0462048 0.000533964 0.662642 -1.18809 4.07663 0.779015 1.86693 1.21276 0.138061 0.00787756 -0.774316 1.18993 9.93923e-017 7.95139e-016 -0 -88.4102 -31.8071 -0.854169 -21.0323 15.0544 -17.2751 0.368473 9.90896 -0.00117926 -2.80461 0.174951 -0.582441 86.9301 -20.9113 8.82609 25.3211 14.4897 13.4612 -0.369625 9.91382 0.00119886 -7.28054 -17.9899 -1.1477 3.83753 21.8515 18.9113 -1.86458 -9.05118 0.00986181 8.50087e-011 -1.83046e-010 1.02096e-011 
49.846 102.736 -164.889 1.12549 0.0429537 1.22266 -3.06038 -1.65489 -1.96233 3.38741 46.2708 -18.1174 14.7468 4.21067 -1.11353 0.0462048 0.000533964 0.662642 -1.47143 4.06637 0.81292 1.79203 1.35062 0.135493 -0.0514852 -1.03388 1.45327 -9.93923e-017 2.38542e-015 -0 -88.2547 -30.8914 -1.00677 -21.4498 15.168 -17.812 0.368473 9.90896 -0.00117926 -2.85421 0.17589 -0.549728 86.6829 -21.6665 8.02073 25.2204 14.3228 12.7039 -0.369625 9.91382 0.00119886 -7.45481 -17.2122 -0.895239 3.73404 22.0021 19.0051 -2.1043 -10.0202 -0.0142497 8.50083e-011 -1.83047e-010 1.02128e-011 
50.0784 102.795 -163.645 1.18391 0.0791216 0.860008 -3.41206 -4.2611 -1.6082 3.89606 50.0955 -19.1488 14.3827 6.09071 -1.3251 0.0462048 0.000533964 0.662642 -1.70356 4.03772 0.856504 1.80502 1.54621 0.134639 -0.120326 -1.38033 1.70455 -4.96962e-017 -1.59028e-015 -1.98785e-016 -88.1679 -29.8564 -1.31797 -21.8029 15.2692 -18.293 0.368473 9.90896 -0.00117926 -2.76289 0.17682 -0.569141 86.2599 -22.3437 7.2668 25.1594 14.1922 12.1123 -0.369625 9.91382 0.00119886 -7.51348 -16.496 -0.40699 3.69713 22.1603 18.8961 -2.31637 -10.9463 -0.040257 8.50079e-011 -1.83047e-010 1.02096e-011 
50.2708 102.855 -162.434 1.15506 0.141935 0.558371 -3.54729 -6.84585 -1.23945 4.63907 53.4841 -20.2253 13.8125 5.39596 -1.20142 0.0462048 0.000533964 0.662642 -1.86743 4.03331 0.894306 1.86207 1.69663 0.135327 -0.153807 -1.87537 1.87852 1.2424e-016 -7.95139e-016 -0 -88.2571 -28.94 -1.92743 -21.9165 15.3158 -18.4884 0.368473 9.90896 -0.00117926 -2.40695 0.17362 -0.768524 85.5943 -22.9673 6.48877 25.1407 14.1065 11.7446 -0.369625 9.91382 0.00119886 -7.4522 -15.8349 -0.00969199 3.58229 22.3165 18.8737 -2.43471 -11.8048 -0.0630803 8.50091e-011 -1.83049e-010 1.02064e-011 
50.4433 102.912 -161.246 1.04199 0.181749 0.318042 -3.51185 -9.30986 -0.728402 5.64187 56.1676 -21.6643 13.2582 3.81299 -0.972817 0.0462048 0.000533964 0.662642 -1.99522 4.02539 0.938886 1.98745 1.89271 0.136156 -0.18518 -2.34691 1.92965 4.96962e-017 -2.38542e-015 -0 -88.435 -27.9228 -2.70681 -21.9109 15.335 -18.5454 0.368473 9.90896 -0.00117926 -1.88182 0.163301 -1.10118 84.7476 -23.5452 5.69301 25.1669 14.0656 11.5814 -0.369625 9.91382 0.00119886 -7.31001 -15.1651 0.414837 3.50351 22.4653 18.7843 -2.50987 -12.6015 -0.084466 8.50083e-011 -1.83048e-010 1.02e-011 
50.6167 102.968 -160.069 0.835025 0.146551 0.16959 -3.35463 -11.5096 0.0152708 6.90995 57.7646 -23.8561 12.971 2.63695 -0.823811 0.0462048 0.000533964 0.662642 -2.09894 4.0003 0.999276 2.20698 2.20432 0.136207 -0.254746 -2.62715 1.75641 -9.93923e-017 7.95139e-016 1.98785e-016 -88.6101 -26.5788 -3.53298 -21.8754 15.3509 -18.6098 0.368473 9.90896 -0.00117926 -1.21755 0.144092 -1.55067 83.7192 -24.104 4.82645 25.2497 14.0878 11.6981 -0.369625 9.91382 0.00119886 -7.1288 -14.3977 0.836332 3.54441 22.5738 18.5791 -2.54423 -13.2913 -0.100701 8.50085e-011 -1.83045e-010 1.02064e-011 
50.7749 103.01 -158.905 0.581634 0.0537626 0.104357 -3.10847 -13.4599 0.752766 8.17553 58.4543 -25.9087 12.7356 1.39988 -0.680089 0.0462048 0.000533964 0.662642 -2.22177 3.95842 1.07059 2.47222 2.59144 0.133862 -0.307109 -2.7652 1.46041 -9.93923e-017 0 -0 -88.8885 -25.1709 -4.52866 -21.724 15.3252 -18.4579 0.368473 9.90896 -0.00117926 -0.487533 0.108234 -2.15405 82.6214 -24.6103 3.98963 25.3577 14.1219 11.8687 -0.369625 9.91382 0.00119886 -6.90682 -13.6012 1.37059 3.65355 22.7143 18.2312 -2.61635 -14.0023 -0.12306 8.50087e-011 -1.83046e-010 1.02e-011 
50.9056 103.013 -157.757 0.323054 -0.125378 0.119342 -2.86652 -15.0941 1.2431 9.09979 58.3328 -26.7948 12.2981 0.0618509 -0.527425 0.0462048 0.000533964 0.662642 -2.42322 3.8862 1.15655 2.74979 3.088 0.12534 -0.311126 -2.74594 1.13697 2.23633e-016 0 -0 -89.41 -23.9212 -5.86941 -21.3719 15.2024 -17.7935 0.368473 9.90896 -0.00117926 0.227477 0.0456517 -2.9672 81.576 -25.0161 3.31811 25.4657 14.1113 11.838 -0.369625 9.91382 0.00119886 -6.64936 -12.8129 2.26142 3.84627 22.982 17.5487 -2.79073 -14.7554 -0.15451 8.50091e-011 -1.83046e-010 1.02e-011 
51.0181 103.007 -156.605 0.0713064 -0.304325 0.228134 -2.64378 -16.522 1.5478 9.59879 57.4823 -27.151 12.0318 -1.36618 -0.370413 0.0462048 0.000533964 0.662642 -2.6662 3.81178 1.24035 3.02051 3.54206 0.116191 -0.218538 -2.59379 0.704296 -4.96962e-017 1.59028e-015 -0 -90.0017 -22.7147 -7.28121 -20.895 15.0481 -16.9831 0.368473 9.90896 -0.00117926 0.916116 -0.0382773 -3.91718 80.5736 -25.3997 2.66238 25.5681 14.0924 11.768 -0.369625 9.91382 0.00119886 -6.39854 -12.033 3.08997 4.01623 23.2737 16.9747 -3.11532 -15.8275 -0.217159 8.50089e-011 -1.83046e-010 1.02064e-011 
51.1206 103.021 -155.425 -0.131542 -0.39101 0.471025 -2.49592 -17.8412 1.5632 9.4439 55.9652 -27.2904 12.3737 -2.96683 -0.203203 0.0462048 0.000533964 0.662642 -2.96934 3.76698 1.30958 3.25204 3.78189 0.111139 0.0586063 -2.2921 0.0567253 -7.45443e-017 -1.59028e-015 -3.97569e-016 -90.5644 -21.4892 -8.5554 -20.3285 14.9133 -16.2762 0.368473 9.90896 -0.00117926 1.52192 -0.147265 -5.0017 79.6569 -25.8423 1.88782 25.6394 14.0865 11.7535 -0.369625 9.91382 0.00119886 -6.18694 -11.3018 3.36272 3.96153 23.5492 17.3107 -3.95559 -18.0348 -0.391944 8.50087e-011 -1.83046e-010 1.02e-011 
51.2041 103.027 -154.228 -0.335483 -0.430747 0.764889 -2.36807 -19.0226 1.54346 9.11723 53.8446 -27.552 12.8794 -4.49924 -0.0424119 0.0462048 0.000533964 0.662642 -3.22586 3.72722 1.35479 3.44962 3.90083 0.108882 0.440234 -1.94881 -0.63852 -4.96962e-017 0 -3.97569e-016 -91.091 -20.335 -9.70395 -19.7311 14.8037 -15.7225 0.368473 9.90896 -0.00117926 2.09935 -0.263761 -6.06479 78.7598 -26.2787 1.07292 25.7148 14.0816 11.7407 -0.369625 9.91382 0.00119886 -5.96265 -10.5473 3.56612 3.94536 23.7247 17.3063 -4.44378 -19.7797 -0.512115 8.50079e-011 -1.83047e-010 1.02032e-011 
